<svg width="14" height="23" viewBox="0 0 14 23" fill="none" xmlns="http://www.w3.org/2000/svg">
<path d="M10.4375 6.966C9.92147 6.966 9.50747 6.816 9.19547 6.516C8.89547 6.204 8.74547 5.79 8.74547 5.274C8.74547 4.77 8.90147 4.362 9.21347 4.05C9.53747 3.738 9.95747 3.582 10.4735 3.582C11.0015 3.582 11.4155 3.738 11.7155 4.05C12.0275 4.362 12.1835 4.77 12.1835 5.274C12.1835 5.79 12.0215 6.204 11.6975 6.516C11.3855 6.816 10.9655 6.966 10.4375 6.966ZM8.42147 18C8.28947 17.868 8.18747 17.724 8.11547 17.568C8.04347 17.412 8.00747 17.232 8.00747 17.028C8.35547 17.028 8.61347 16.956 8.78147 16.812C8.94947 16.656 9.03347 16.398 9.03347 16.038V10.818C9.03347 10.506 8.95547 10.272 8.79947 10.116C8.65547 9.96 8.33747 9.882 7.84547 9.882V9.09C8.02547 8.982 8.30147 8.862 8.67347 8.73C9.04547 8.586 9.44747 8.466 9.87947 8.37C10.3235 8.274 10.7195 8.226 11.0675 8.226C11.3435 8.226 11.5415 8.292 11.6615 8.424C11.7815 8.544 11.8415 8.754 11.8415 9.054V16.056C11.8415 16.416 11.9315 16.668 12.1115 16.812C12.2915 16.956 12.5555 17.028 12.9035 17.028C12.9035 17.232 12.8675 17.412 12.7955 17.568C12.7235 17.724 12.6215 17.868 12.4895 18H8.42147Z" fill="#20244F"/>
</svg>
